<svg width="989" height="136" viewBox="0 0 989 136" fill="none" xmlns="http://www.w3.org/2000/svg">
<path d="M0.974024 132.34V38.48C0.974024 36.96 2.11402 35.63 3.63402 35.63H38.784C41.064 35.63 42.774 33.92 42.774 31.64V4.84999C42.774 3.33 44.104 1.99999 45.624 1.99999H64.054C65.574 1.99999 66.714 3.33 66.714 4.84999V31.64C66.714 33.16 65.574 34.49 64.054 34.49H45.624C43.344 34.49 41.634 36.2 41.634 38.48V132.34C41.634 133.86 40.304 135 38.784 135H3.63402C2.11402 135 0.974024 133.86 0.974024 132.34ZM70.704 34.49H89.134C91.414 34.49 93.124 36.2 93.124 38.48V98.71C93.124 100.99 91.414 102.7 89.134 102.7H45.624C44.104 102.7 42.774 104.03 42.774 105.55V132.34C42.774 133.86 44.104 135 45.624 135H89.134C90.654 135 91.984 133.86 91.984 132.34V105.55C91.984 103.27 93.694 101.56 95.974 101.56H114.404C115.924 101.56 117.064 100.23 117.064 98.71V38.48C117.064 36.96 115.924 35.63 114.404 35.63H95.974C93.694 35.63 91.984 33.92 91.984 31.64V4.84999C91.984 3.33 90.654 1.99999 89.134 1.99999H70.704C69.184 1.99999 68.044 3.33 68.044 4.84999V31.64C68.044 33.16 69.184 34.49 70.704 34.49ZM159.697 135H137.467V0.0999928H159.697V135ZM295.931 38.48V65.27C295.931 66.79 294.791 67.93 293.271 67.93H257.931C256.411 67.93 255.271 66.79 255.271 65.27V38.48C255.271 36.2 253.371 34.49 251.281 34.49H207.581C205.491 34.49 203.781 36.2 203.781 38.48V132.34C203.781 133.86 202.451 135.19 200.931 135.19H182.501C180.981 135.19 179.651 133.86 179.651 132.34V4.84999C179.651 3.33 180.981 1.99999 182.501 1.99999H251.281C252.801 1.99999 254.131 3.33 254.131 4.84999V31.64C254.131 33.92 255.841 35.63 257.931 35.63H293.271C294.791 35.63 295.931 36.96 295.931 38.48ZM204.921 132.34C204.921 133.86 206.061 135.19 207.581 135.19H226.201C227.721 135.19 228.861 133.86 228.861 132.34V88.64C228.861 86.55 230.571 84.65 232.851 84.65H251.281C253.371 84.65 255.271 86.55 255.271 88.64V132.34C255.271 133.86 256.411 135 257.931 135H293.271C294.791 135 295.931 133.86 295.931 132.34V88.64C295.931 87.12 294.791 85.79 293.271 85.79H257.931C255.841 85.79 254.131 84.08 254.131 81.99V71.92C254.131 70.4 252.801 69.07 251.281 69.07H207.581C206.061 69.07 204.921 70.4 204.921 71.92V132.34ZM369.724 135H347.494V18.53H307.784V0.0999928H409.624V18.53H369.724V135ZM467.412 69.07H448.792C446.702 69.07 444.992 67.36 444.992 65.08V4.84999C444.992 3.33 443.662 1.99999 442.142 1.99999H423.712C422.192 1.99999 420.862 3.33 420.862 4.84999V65.08C420.862 66.6 422.192 67.93 423.712 67.93H442.142C444.422 67.93 446.132 69.64 446.132 71.92V132.34C446.132 133.86 447.272 135 448.792 135H467.412C468.932 135 470.072 133.86 470.072 132.34V71.92C470.072 70.4 468.932 69.07 467.412 69.07ZM495.342 71.92V132.34C495.342 133.86 494.012 135 492.492 135H474.062C472.542 135 471.212 133.86 471.212 132.34V71.92C471.212 70.4 472.542 69.07 474.062 69.07H492.492C494.582 69.07 496.482 67.36 496.482 65.08V4.84999C496.482 3.33 497.622 1.99999 499.142 1.99999H534.482C536.002 1.99999 537.142 3.33 537.142 4.84999V65.08C537.142 66.6 536.002 67.93 534.482 67.93H499.142C497.052 67.93 495.342 69.64 495.342 71.92ZM724.72 38.48V81.99C724.72 83.51 723.58 84.84 722.06 84.84H686.72C685.2 84.84 684.06 83.51 684.06 81.99V38.48C684.06 36.2 682.16 34.49 680.07 34.49H644.73C642.64 34.49 640.93 36.2 640.93 38.48V98.71C640.93 100.23 639.6 101.56 638.08 101.56H619.65C618.13 101.56 616.8 100.23 616.8 98.71V38.48C616.8 36.96 618.13 35.63 619.65 35.63H638.08C640.36 35.63 642.07 33.92 642.07 31.64V4.84999C642.07 3.33 643.21 1.99999 644.73 1.99999H680.07C681.59 1.99999 682.73 3.33 682.73 4.84999V31.64C682.73 33.92 684.63 35.63 686.72 35.63H722.06C723.58 35.63 724.72 36.96 724.72 38.48ZM682.73 71.92C682.73 70.4 681.59 69.26 680.07 69.26H644.73C643.21 69.26 642.07 70.4 642.07 71.92V98.71C642.07 100.99 640.36 102.7 638.08 102.7H619.65C618.13 102.7 616.99 104.03 616.99 105.55V132.34C616.99 133.86 618.13 135 619.65 135H638.08C639.6 135 640.93 133.86 640.93 132.34V105.55C640.93 103.27 642.64 101.56 644.73 101.56H680.07C681.59 101.56 682.73 100.23 682.73 98.71V71.92ZM862.743 135H839.373L827.403 102.13H769.453L757.293 135H734.873L786.743 0.0999928H810.873L862.743 135ZM798.523 23.66L776.293 83.7H820.563L798.523 23.66ZM919.033 69.07H900.413C898.323 69.07 896.613 67.36 896.613 65.08V4.84999C896.613 3.33 895.283 1.99999 893.763 1.99999H875.333C873.813 1.99999 872.483 3.33 872.483 4.84999V65.08C872.483 66.6 873.813 67.93 875.333 67.93H893.763C896.043 67.93 897.753 69.64 897.753 71.92V132.34C897.753 133.86 898.893 135 900.413 135H919.033C920.553 135 921.693 133.86 921.693 132.34V71.92C921.693 70.4 920.553 69.07 919.033 69.07ZM946.963 71.92V132.34C946.963 133.86 945.633 135 944.113 135H925.683C924.163 135 922.833 133.86 922.833 132.34V71.92C922.833 70.4 924.163 69.07 925.683 69.07H944.113C946.203 69.07 948.103 67.36 948.103 65.08V4.84999C948.103 3.33 949.243 1.99999 950.763 1.99999H986.103C987.623 1.99999 988.763 3.33 988.763 4.84999V65.08C988.763 66.6 987.623 67.93 986.103 67.93H950.763C948.673 67.93 946.963 69.64 946.963 71.92Z" fill="white"/>
</svg>
