<svg width="584" height="450" viewBox="0 0 584 450" fill="none" xmlns="http://www.w3.org/2000/svg">
<path d="M23.6816 11.9648V17.043H9.7168V36.7695C16.1865 36.6963 20.8496 36.4033 26.0742 35.4512L26.709 40.4805C20.6055 41.6523 15.2344 41.8965 7.03125 41.8477H3.41797V11.9648H23.6816ZM38.8672 8.05859V52.5898H32.666V28.5176H21.4844V23.4395H32.666V8.05859H38.8672ZM93.5059 8.10742V41.9453H87.3047V33.5469H81.2988V28.6152H87.3047V24.1719H81.2988V19.1426H87.3047V8.10742H93.5059ZM80.8594 12.7461V17.6777H56.1523V12.7461H65.7227V8.00977H71.9238V12.7461H80.8594ZM68.75 19.2402C74.8535 19.2402 79.248 22.8535 79.2969 27.9805C79.248 33.1074 74.8535 36.6719 68.75 36.6719C62.6953 36.6719 58.3008 33.1074 58.3496 27.9805C58.3008 22.8535 62.6953 19.2402 68.75 19.2402ZM68.75 24.0742C66.0156 24.123 64.1113 25.4902 64.1602 27.9805C64.1113 30.5195 66.0156 31.9355 68.75 31.9355C71.4355 31.9355 73.3887 30.5195 73.4375 27.9805C73.3887 25.4902 71.4355 24.123 68.75 24.0742ZM94.4336 46.7305V51.7109H63.916V39.0645H70.2148V46.7305H94.4336ZM136.719 8.05859V34.084H130.518V28.4199H122.217V31.6426H101.123V11.3301H122.217V14.5527H130.518V8.05859H136.719ZM107.324 16.2617V26.7109H116.113V16.2617H107.324ZM121.533 35.2559C131.006 35.2559 136.816 38.4297 136.865 43.8984C136.816 49.3672 131.006 52.4922 121.533 52.4922C112.061 52.4922 106.25 49.3672 106.25 43.8984C106.25 38.4297 112.061 35.2559 121.533 35.2559ZM121.533 39.9922C115.625 39.9922 112.451 41.2617 112.451 43.8984C112.451 46.4375 115.625 47.7559 121.533 47.7559C127.441 47.7559 130.664 46.4375 130.664 43.8984C130.664 41.2617 127.441 39.9922 121.533 39.9922ZM122.217 23.3906H130.518V19.4844H122.217V23.3906ZM177.734 8.10742V21.7305H183.74V26.8086H177.734V41.2617H171.484V8.10742H177.734ZM168.848 12.7461V17.6777H142.48V12.7461H152.588V8.00977H158.789V12.7461H168.848ZM155.664 19.2402C162.109 19.2402 166.602 22.707 166.602 27.834C166.602 32.9609 162.109 36.3301 155.664 36.3301C149.17 36.3301 144.629 32.9609 144.629 27.834C144.629 22.707 149.17 19.2402 155.664 19.2402ZM155.664 23.9766C152.686 24.0254 150.684 25.3926 150.732 27.834C150.684 30.2754 152.686 31.5938 155.664 31.5938C158.643 31.5938 160.693 30.2754 160.693 27.834C160.693 25.3926 158.643 24.0254 155.664 23.9766ZM179.346 46.7305V51.7109H148.926V38.7227H155.127V46.7305H179.346ZM234.668 8.05859V30.4219H228.467V27.0039H218.311V22.2676H228.467V18.3613H218.799C216.04 25.0508 209.692 29.3232 199.854 31.4473L197.754 26.3691C207.935 24.3428 212.646 20.1436 213.477 14.7969H200.244V9.76758H220.361C220.361 11.1104 220.264 12.4043 220.068 13.625H228.467V8.05859H234.668ZM234.668 32.0332V44.1914H211.426V47.1211H235.645V52.0527H205.176V39.6016H228.418V36.916H205.127V32.0332H234.668ZM278.857 8.05859V52.4922H272.949V8.05859H278.857ZM269.775 8.79102V50.4414H263.916V28.3223H258.057V23.293H263.916V8.79102H269.775ZM254.492 19.9727C254.492 27.3457 256.787 34.8164 263.281 38.5273L259.619 43.1172C255.664 40.7734 253.052 36.7939 251.562 32.0332C250.024 37.209 247.339 41.6035 243.262 44.0938L239.502 39.5039C246.045 35.5 248.486 27.4922 248.486 19.9727V17.5801H241.211V12.5996H261.23V17.5801H254.492V19.9727ZM332.373 8.05859V52.5898H326.074V8.05859H332.373ZM319.482 11.9648V17.043H304.102V36.7207C312.061 36.6963 316.943 36.5254 322.559 35.5L323.145 40.627C316.992 41.7988 311.328 41.9941 301.709 41.9941H297.852V11.9648H319.482ZM373.438 8.05859V24.6602H379.98V29.8848H373.438V52.4922H367.188V8.05859H373.438ZM345.996 11.5742V22.4141H355.225V11.5742H361.426V42.1895H339.795V11.5742H345.996ZM345.996 37.1602H355.225V27.248H345.996V37.1602ZM418.799 8.05859V52.5898H412.5V8.05859H418.799ZM394.678 11.1836C401.367 11.1836 406.348 17.3359 406.348 27.0039C406.348 36.7695 401.367 42.873 394.678 42.873C387.842 42.873 382.861 36.7695 382.91 27.0039C382.861 17.3359 387.842 11.1836 394.678 11.1836ZM394.678 16.7988C391.211 16.7988 388.916 20.4121 388.916 27.0039C388.916 33.6445 391.211 37.209 394.678 37.209C398.047 37.209 400.342 33.6445 400.342 27.0039C400.342 20.4121 398.047 16.7988 394.678 16.7988ZM448.193 13.918C448.193 20.4121 453.955 27.3945 464.014 29.1035L461.279 34.2793C453.54 32.7412 447.778 28.3955 444.922 22.6582C441.968 28.3467 436.206 32.7168 428.516 34.2793L425.83 29.1035C435.693 27.3457 441.504 20.3633 441.553 13.918V10.6953H448.193V13.918ZM465.479 41.8965V47.0234H424.805V41.8965H465.479Z" fill="white"/>
<path d="M7.2 240.48V151.56C7.2 150.12 8.28 148.86 9.72 148.86H43.02C45.18 148.86 46.8 147.24 46.8 145.08V119.7C46.8 118.26 48.06 117 49.5 117H66.96C68.4 117 69.48 118.26 69.48 119.7V145.08C69.48 146.52 68.4 147.78 66.96 147.78H49.5C47.34 147.78 45.72 149.4 45.72 151.56V240.48C45.72 241.92 44.46 243 43.02 243H9.72C8.28 243 7.2 241.92 7.2 240.48ZM73.26 147.78H90.72C92.88 147.78 94.5 149.4 94.5 151.56V208.62C94.5 210.78 92.88 212.4 90.72 212.4H49.5C48.06 212.4 46.8 213.66 46.8 215.1V240.48C46.8 241.92 48.06 243 49.5 243H90.72C92.16 243 93.42 241.92 93.42 240.48V215.1C93.42 212.94 95.04 211.32 97.2 211.32H114.66C116.1 211.32 117.18 210.06 117.18 208.62V151.56C117.18 150.12 116.1 148.86 114.66 148.86H97.2C95.04 148.86 93.42 147.24 93.42 145.08V119.7C93.42 118.26 92.16 117 90.72 117H73.26C71.82 117 70.74 118.26 70.74 119.7V145.08C70.74 146.52 71.82 147.78 73.26 147.78ZM157.569 243H136.509V115.2H157.569V243ZM286.633 151.56V176.94C286.633 178.38 285.553 179.46 284.113 179.46H250.633C249.193 179.46 248.113 178.38 248.113 176.94V151.56C248.113 149.4 246.313 147.78 244.333 147.78H202.933C200.953 147.78 199.333 149.4 199.333 151.56V240.48C199.333 241.92 198.073 243.18 196.633 243.18H179.173C177.733 243.18 176.473 241.92 176.473 240.48V119.7C176.473 118.26 177.733 117 179.173 117H244.333C245.773 117 247.033 118.26 247.033 119.7V145.08C247.033 147.24 248.653 148.86 250.633 148.86H284.113C285.553 148.86 286.633 150.12 286.633 151.56ZM200.413 240.48C200.413 241.92 201.493 243.18 202.933 243.18H220.573C222.013 243.18 223.093 241.92 223.093 240.48V199.08C223.093 197.1 224.713 195.3 226.873 195.3H244.333C246.313 195.3 248.113 197.1 248.113 199.08V240.48C248.113 241.92 249.193 243 250.633 243H284.113C285.553 243 286.633 241.92 286.633 240.48V199.08C286.633 197.64 285.553 196.38 284.113 196.38H250.633C248.653 196.38 247.033 194.76 247.033 192.78V183.24C247.033 181.8 245.773 180.54 244.333 180.54H202.933C201.493 180.54 200.413 181.8 200.413 183.24V240.48ZM356.542 243H335.482V132.66H297.862V115.2H394.342V132.66H356.542V243ZM449.089 180.54H431.449C429.469 180.54 427.849 178.92 427.849 176.76V119.7C427.849 118.26 426.589 117 425.149 117H407.689C406.249 117 404.989 118.26 404.989 119.7V176.76C404.989 178.2 406.249 179.46 407.689 179.46H425.149C427.309 179.46 428.929 181.08 428.929 183.24V240.48C428.929 241.92 430.009 243 431.449 243H449.089C450.529 243 451.609 241.92 451.609 240.48V183.24C451.609 181.8 450.529 180.54 449.089 180.54ZM475.549 183.24V240.48C475.549 241.92 474.289 243 472.849 243H455.389C453.949 243 452.689 241.92 452.689 240.48V183.24C452.689 181.8 453.949 180.54 455.389 180.54H472.849C474.829 180.54 476.629 178.92 476.629 176.76V119.7C476.629 118.26 477.709 117 479.149 117H512.629C514.069 117 515.149 118.26 515.149 119.7V176.76C515.149 178.2 514.069 179.46 512.629 179.46H479.149C477.169 179.46 475.549 181.08 475.549 183.24ZM109.26 331.56V372.78C109.26 374.22 108.18 375.48 106.74 375.48H73.26C71.82 375.48 70.74 374.22 70.74 372.78V331.56C70.74 329.4 68.94 327.78 66.96 327.78H33.48C31.5 327.78 29.88 329.4 29.88 331.56V388.62C29.88 390.06 28.62 391.32 27.18 391.32H9.72C8.28 391.32 7.02 390.06 7.02 388.62V331.56C7.02 330.12 8.28 328.86 9.72 328.86H27.18C29.34 328.86 30.96 327.24 30.96 325.08V299.7C30.96 298.26 32.04 297 33.48 297H66.96C68.4 297 69.48 298.26 69.48 299.7V325.08C69.48 327.24 71.28 328.86 73.26 328.86H106.74C108.18 328.86 109.26 330.12 109.26 331.56ZM69.48 363.24C69.48 361.8 68.4 360.72 66.96 360.72H33.48C32.04 360.72 30.96 361.8 30.96 363.24V388.62C30.96 390.78 29.34 392.4 27.18 392.4H9.72C8.28 392.4 7.2 393.66 7.2 395.1V420.48C7.2 421.92 8.28 423 9.72 423H27.18C28.62 423 29.88 421.92 29.88 420.48V395.1C29.88 392.94 31.5 391.32 33.48 391.32H66.96C68.4 391.32 69.48 390.06 69.48 388.62V363.24ZM240.019 423H217.879L206.539 391.86H151.639L140.119 423H118.879L168.019 295.2H190.879L240.019 423ZM179.179 317.52L158.119 374.4H200.059L179.179 317.52ZM293.347 360.54H275.707C273.727 360.54 272.107 358.92 272.107 356.76V299.7C272.107 298.26 270.847 297 269.407 297H251.947C250.507 297 249.247 298.26 249.247 299.7V356.76C249.247 358.2 250.507 359.46 251.947 359.46H269.407C271.567 359.46 273.187 361.08 273.187 363.24V420.48C273.187 421.92 274.267 423 275.707 423H293.347C294.787 423 295.867 421.92 295.867 420.48V363.24C295.867 361.8 294.787 360.54 293.347 360.54ZM319.807 363.24V420.48C319.807 421.92 318.547 423 317.107 423H299.647C298.207 423 296.947 421.92 296.947 420.48V363.24C296.947 361.8 298.207 360.54 299.647 360.54H317.107C319.087 360.54 320.887 358.92 320.887 356.76V299.7C320.887 298.26 321.967 297 323.407 297H356.887C358.327 297 359.407 298.26 359.407 299.7V356.76C359.407 358.2 358.327 359.46 356.887 359.46H323.407C321.427 359.46 319.807 361.08 319.807 363.24Z" fill="#FF0066"/>
</svg>
