<svg width="1222" height="823" viewBox="0 0 1222 823" fill="none" xmlns="http://www.w3.org/2000/svg">
<path d="M46.3359 345.4V147.8C46.3359 144.6 48.7359 141.8 51.9359 141.8H125.936C130.736 141.8 134.336 138.2 134.336 133.4V77C134.336 73.8 137.136 71 140.336 71H179.136C182.336 71 184.736 73.8 184.736 77V133.4C184.736 136.6 182.336 139.4 179.136 139.4H140.336C135.536 139.4 131.936 143 131.936 147.8V345.4C131.936 348.6 129.136 351 125.936 351H51.9359C48.7359 351 46.3359 348.6 46.3359 345.4ZM193.136 139.4H231.936C236.736 139.4 240.336 143 240.336 147.8V274.6C240.336 279.4 236.736 283 231.936 283H140.336C137.136 283 134.336 285.8 134.336 289V345.4C134.336 348.6 137.136 351 140.336 351H231.936C235.136 351 237.936 348.6 237.936 345.4V289C237.936 284.2 241.536 280.6 246.336 280.6H285.136C288.336 280.6 290.736 277.8 290.736 274.6V147.8C290.736 144.6 288.336 141.8 285.136 141.8H246.336C241.536 141.8 237.936 138.2 237.936 133.4V77C237.936 73.8 235.136 71 231.936 71H193.136C189.936 71 187.536 73.8 187.536 77V133.4C187.536 136.6 189.936 139.4 193.136 139.4ZM380.489 351H333.689V67H380.489V351ZM667.298 147.8V204.2C667.298 207.4 664.898 209.8 661.698 209.8H587.298C584.098 209.8 581.698 207.4 581.698 204.2V147.8C581.698 143 577.698 139.4 573.298 139.4H481.298C476.898 139.4 473.298 143 473.298 147.8V345.4C473.298 348.6 470.498 351.4 467.298 351.4H428.498C425.298 351.4 422.498 348.6 422.498 345.4V77C422.498 73.8 425.298 71 428.498 71H573.298C576.498 71 579.298 73.8 579.298 77V133.4C579.298 138.2 582.898 141.8 587.298 141.8H661.698C664.898 141.8 667.298 144.6 667.298 147.8ZM475.698 345.4C475.698 348.6 478.098 351.4 481.298 351.4H520.498C523.698 351.4 526.098 348.6 526.098 345.4V253.4C526.098 249 529.698 245 534.498 245H573.298C577.698 245 581.698 249 581.698 253.4V345.4C581.698 348.6 584.098 351 587.298 351H661.698C664.898 351 667.298 348.6 667.298 345.4V253.4C667.298 250.2 664.898 247.4 661.698 247.4H587.298C582.898 247.4 579.298 243.8 579.298 239.4V218.2C579.298 215 576.498 212.2 573.298 212.2H481.298C478.098 212.2 475.698 215 475.698 218.2V345.4ZM822.652 351H775.852V105.8H692.252V67H906.652V105.8H822.652V351ZM1028.31 212.2H989.111C984.711 212.2 981.111 208.6 981.111 203.8V77C981.111 73.8 978.311 71 975.111 71H936.311C933.111 71 930.311 73.8 930.311 77V203.8C930.311 207 933.111 209.8 936.311 209.8H975.111C979.911 209.8 983.511 213.4 983.511 218.2V345.4C983.511 348.6 985.911 351 989.111 351H1028.31C1031.51 351 1033.91 348.6 1033.91 345.4V218.2C1033.91 215 1031.51 212.2 1028.31 212.2ZM1087.11 218.2V345.4C1087.11 348.6 1084.31 351 1081.11 351H1042.31C1039.11 351 1036.31 348.6 1036.31 345.4V218.2C1036.31 215 1039.11 212.2 1042.31 212.2H1081.11C1085.51 212.2 1089.51 208.6 1089.51 203.8V77C1089.51 73.8 1091.91 71 1095.11 71H1169.51C1172.71 71 1175.11 73.8 1175.11 77V203.8C1175.11 207 1172.71 209.8 1169.51 209.8H1095.11C1090.71 209.8 1087.11 213.4 1087.11 218.2ZM446.183 547.8V639.4C446.183 642.6 443.783 645.4 440.583 645.4H366.183C362.983 645.4 360.583 642.6 360.583 639.4V547.8C360.583 543 356.583 539.4 352.183 539.4H277.783C273.383 539.4 269.783 543 269.783 547.8V674.6C269.783 677.8 266.983 680.6 263.783 680.6H224.983C221.783 680.6 218.983 677.8 218.983 674.6V547.8C218.983 544.6 221.783 541.8 224.983 541.8H263.783C268.583 541.8 272.183 538.2 272.183 533.4V477C272.183 473.8 274.583 471 277.783 471H352.183C355.383 471 357.783 473.8 357.783 477V533.4C357.783 538.2 361.783 541.8 366.183 541.8H440.583C443.783 541.8 446.183 544.6 446.183 547.8ZM357.783 618.2C357.783 615 355.383 612.6 352.183 612.6H277.783C274.583 612.6 272.183 615 272.183 618.2V674.6C272.183 679.4 268.583 683 263.783 683H224.983C221.783 683 219.383 685.8 219.383 689V745.4C219.383 748.6 221.783 751 224.983 751H263.783C266.983 751 269.783 748.6 269.783 745.4V689C269.783 684.2 273.383 680.6 277.783 680.6H352.183C355.383 680.6 357.783 677.8 357.783 674.6V618.2ZM736.758 751H687.558L662.358 681.8H540.358L514.758 751H467.558L576.758 467H627.558L736.758 751ZM601.558 516.6L554.758 643H647.958L601.558 516.6ZM855.264 612.2H816.064C811.664 612.2 808.064 608.6 808.064 603.8V477C808.064 473.8 805.264 471 802.064 471H763.264C760.064 471 757.264 473.8 757.264 477V603.8C757.264 607 760.064 609.8 763.264 609.8H802.064C806.864 609.8 810.464 613.4 810.464 618.2V745.4C810.464 748.6 812.864 751 816.064 751H855.264C858.464 751 860.864 748.6 860.864 745.4V618.2C860.864 615 858.464 612.2 855.264 612.2ZM914.064 618.2V745.4C914.064 748.6 911.264 751 908.064 751H869.264C866.064 751 863.264 748.6 863.264 745.4V618.2C863.264 615 866.064 612.2 869.264 612.2H908.064C912.464 612.2 916.464 608.6 916.464 603.8V477C916.464 473.8 918.864 471 922.064 471H996.464C999.664 471 1002.06 473.8 1002.06 477V603.8C1002.06 607 999.664 609.8 996.464 609.8H922.064C917.664 609.8 914.064 613.4 914.064 618.2Z" fill="#FF0066"/>
<rect x="11.5" y="10.5" width="1199" height="801" stroke="white"/>
<rect width="23" height="23" fill="#FF0066"/>
<rect y="800" width="23" height="23" fill="#FF0066"/>
<rect x="1199" width="23" height="23" fill="#FF0066"/>
<rect x="1199" y="800" width="23" height="23" fill="#FF0066"/>
<path d="M311 411H911" stroke="white" stroke-dasharray="5 5"/>
<path d="M576 447L646.711 376.289" stroke="white" stroke-dasharray="5 5"/>
<path d="M647 447L576.289 376.289" stroke="white" stroke-dasharray="5 5"/>
<path d="M611 711L611 111" stroke="white" stroke-dasharray="5 5"/>
</svg>
