<svg width="122" height="57" viewBox="0 0 122 57" fill="none" xmlns="http://www.w3.org/2000/svg">
<path d="M0.60625 55.88V16.36C0.60625 15.72 1.08625 15.16 1.72625 15.16H16.5263C17.4863 15.16 18.2063 14.44 18.2063 13.48V2.2C18.2063 1.56 18.7663 0.999996 19.4063 0.999996H27.1663C27.8063 0.999996 28.2863 1.56 28.2863 2.2V13.48C28.2863 14.12 27.8063 14.68 27.1663 14.68H19.4063C18.4463 14.68 17.7263 15.4 17.7263 16.36V55.88C17.7263 56.52 17.1663 57 16.5263 57H1.72625C1.08625 57 0.60625 56.52 0.60625 55.88ZM29.9663 14.68H37.7263C38.6863 14.68 39.4063 15.4 39.4063 16.36V41.72C39.4063 42.68 38.6863 43.4 37.7263 43.4H19.4063C18.7663 43.4 18.2063 43.96 18.2063 44.6V55.88C18.2063 56.52 18.7663 57 19.4063 57H37.7263C38.3663 57 38.9263 56.52 38.9263 55.88V44.6C38.9263 43.64 39.6462 42.92 40.6063 42.92H48.3663C49.0063 42.92 49.4863 42.36 49.4863 41.72V16.36C49.4863 15.72 49.0063 15.16 48.3663 15.16H40.6063C39.6462 15.16 38.9263 14.44 38.9263 13.48V2.2C38.9263 1.56 38.3663 0.999996 37.7263 0.999996H29.9663C29.3263 0.999996 28.8463 1.56 28.8463 2.2V13.48C28.8463 14.12 29.3263 14.68 29.9663 14.68ZM67.4369 57H58.0769V0.199997H67.4369V57ZM121.279 16.36V34.68C121.279 35.32 120.799 35.88 120.159 35.88H105.279C104.639 35.88 104.159 35.32 104.159 34.68V16.36C104.159 15.4 103.359 14.68 102.479 14.68H87.5988C86.7188 14.68 85.9988 15.4 85.9988 16.36V41.72C85.9988 42.36 85.4388 42.92 84.7988 42.92H77.0388C76.3988 42.92 75.8388 42.36 75.8388 41.72V16.36C75.8388 15.72 76.3988 15.16 77.0388 15.16H84.7988C85.7588 15.16 86.4788 14.44 86.4788 13.48V2.2C86.4788 1.56 86.9588 0.999996 87.5988 0.999996H102.479C103.119 0.999996 103.599 1.56 103.599 2.2V13.48C103.599 14.44 104.399 15.16 105.279 15.16H120.159C120.799 15.16 121.279 15.72 121.279 16.36ZM103.599 30.44C103.599 29.8 103.119 29.32 102.479 29.32H87.5988C86.9588 29.32 86.4788 29.8 86.4788 30.44V41.72C86.4788 42.68 85.7588 43.4 84.7988 43.4H77.0388C76.3988 43.4 75.9188 43.96 75.9188 44.6V55.88C75.9188 56.52 76.3988 57 77.0388 57H84.7988C85.4388 57 85.9988 56.52 85.9988 55.88V44.6C85.9988 43.64 86.7188 42.92 87.5988 42.92H102.479C103.119 42.92 103.599 42.36 103.599 41.72V30.44Z" fill="black"/>
</svg>
