<svg width="746" height="156" viewBox="0 0 746 156" fill="none" xmlns="http://www.w3.org/2000/svg">
<path d="M28.6094 31.5703V34.5781H4.3125V24.5H8.0625V31.5703H28.6094ZM32.2812 18.875V21.9219H0.289062V18.875H14.3906V13.2891H18.0625V18.875H32.2812ZM18.1016 2.66406C18.1016 7.42969 23.4531 11.6094 30.1719 12.5859L28.7266 15.4766C23.1992 14.5 18.3945 11.668 16.2266 7.625C14.0195 11.668 9.23438 14.5391 3.72656 15.4766L2.24219 12.5859C8.92188 11.5312 14.3125 7.35156 14.3516 2.66406V1.25781H18.1016V2.66406ZM63.8438 0.320312V20.0859H60.1719V0.320312H63.8438ZM40.7188 2.35156V14.6172C46.3633 14.5781 51.3242 14.168 56.5781 13.0547L57.0859 16.1406C51.3047 17.3125 46.0312 17.7422 39.8984 17.7422H37.0078V2.35156H40.7188ZM63.8438 21.6875V34.8516H40.9141V21.6875H63.8438ZM44.5469 24.6172V31.8828H60.2109V24.6172H44.5469ZM80.8359 2.82031C86.3828 2.78125 90.3281 6.21875 90.3672 11.1406C90.3281 16.0625 86.3828 19.5 80.8359 19.5C75.3281 19.5 71.2656 16.0625 71.3047 11.1406C71.2656 6.21875 75.3281 2.78125 80.8359 2.82031ZM80.8359 6.02344C77.4375 6.02344 74.9375 8.05469 74.9766 11.1406C74.9375 14.2266 77.4375 16.2578 80.8359 16.2578C84.2344 16.2578 86.7344 14.2266 86.7344 11.1406C86.7344 8.05469 84.2344 6.02344 80.8359 6.02344ZM98.375 0.320312V35.3984H94.6641V0.320312H98.375ZM69.625 24.7734C75.9922 24.7734 84.8203 24.6953 92.4766 23.6016L92.75 26.2969C84.8203 27.8203 76.3438 27.8594 70.0938 27.8594L69.625 24.7734ZM142.906 0.320312V18.0156H139.234V10.9062H132.398C131.637 14.8125 128.102 17.4297 123.453 17.4297C118.141 17.4297 114.273 14.1094 114.273 9.38281C114.273 4.73438 118.141 1.45312 123.453 1.45312C128.102 1.45312 131.637 4.03125 132.398 7.85938H139.234V0.320312H142.906ZM123.453 4.5C120.172 4.46094 117.828 6.49219 117.828 9.38281C117.828 12.3906 120.172 14.3828 123.453 14.3828C126.656 14.3828 129 12.3906 129 9.38281C129 6.49219 126.656 4.46094 123.453 4.5ZM142.906 19.8516V28.5625H123.805V31.9219H144.156V34.8906H120.094V25.7891H139.234V22.7422H120.016V19.8516H142.906ZM176.305 1.72656V3.99219C176.305 6.27734 176.305 9.1875 175.602 12.8203H180.367V15.7109H166.109V19.8516H176.344V28.6016H155.836V32H177.242V34.9688H152.125V25.9844H172.672V22.7812H152.086V19.8516H162.438V15.7109H148.336V12.8203H171.891C172.555 9.40234 172.633 6.86328 172.633 4.69531H152.359V1.72656H176.305ZM202.398 4.07031V6.21875C202.398 9.14844 202.398 13.6797 201.383 19.9297L197.711 19.6562C198.59 14.0508 198.688 10.0078 198.727 7.07812H184.508V4.07031H202.398ZM193.414 14.0703V24.5391C197.145 24.4219 200.934 24.168 204.43 23.7188L204.625 26.4922C197.32 27.6641 189.195 27.8203 182.984 27.7812L182.555 24.7734C184.742 24.7539 187.184 24.7344 189.742 24.6562V14.0703H193.414ZM210.172 0.320312V14.7734H215.523V17.9375H210.172V35.3203H206.422V0.320312H210.172ZM239.43 10.6328C239.43 16.1797 243.062 22.3516 248.375 24.8516L246.266 27.7422C242.34 25.8477 239.234 21.9023 237.672 17.3125C236.051 22.332 232.77 26.6484 228.766 28.6406L226.578 25.7109C231.891 23.1719 235.758 16.5703 235.758 10.6328V6.92188H227.867V3.83594H247.047V6.92188H239.43V10.6328ZM254.508 0.320312V14.1875H260.133V17.3125H254.508V35.3203H250.797V0.320312H254.508ZM290.875 0.320312V35.3984H287.164V0.320312H290.875ZM280.172 3.48438V16.2578H267.594V23.9141C273.258 23.8945 278.219 23.6406 284.078 22.6641L284.43 25.7109C278.219 26.7656 272.945 27 266.773 27H263.805V13.2891H276.383V6.49219H263.766V3.48438H280.172ZM328.375 16.375V19.2266H296.344V16.375H328.375ZM324.43 21.6875V29.3828H303.883V32.2734H325.523V34.8906H300.172V26.9219H320.758V24.3438H300.133V21.6875H324.43ZM324.352 1.21875V8.79688H304.117V11.4531H324.938V14.0703H300.445V6.33594H320.641V3.83594H300.367V1.21875H324.352ZM369.82 0.320312V35.3203H366.07V0.320312H369.82ZM359.391 4.07031C359.391 14.3047 355.016 23.2109 343.023 28.9531L341.07 25.9453C350.387 21.5117 354.918 15.2031 355.641 7.03906H342.75V4.07031H359.391ZM404.469 22.8203V35.3594H400.758V25.7891H380.758V22.8203H404.469ZM404.469 0.320312V20.9453H400.758V12.2344H393.961C393.219 16.4141 389.625 19.2266 384.977 19.1875C379.703 19.2266 375.797 15.7109 375.797 10.7109C375.797 5.78906 379.703 2.23438 384.977 2.27344C389.625 2.23438 393.199 5.06641 393.961 9.1875H400.758V0.320312H404.469ZM384.977 5.39844C381.734 5.39844 379.352 7.58594 379.352 10.7109C379.352 13.9141 381.734 16.0625 384.977 16.0625C388.141 16.0625 390.523 13.9141 390.523 10.7109C390.523 7.58594 388.141 5.39844 384.977 5.39844ZM437.125 0.320312V14.5H442.75V17.5859H437.125V35.3203H433.453V0.320312H437.125ZM430.406 5.78906V8.83594H409.664V5.78906H418.297V0.789062H422.008V5.78906H430.406ZM420.172 11.4141C425.172 11.4141 428.844 14.7734 428.883 19.5391C428.844 24.3438 425.172 27.6641 420.172 27.7031C415.133 27.6641 411.461 24.3438 411.461 19.5391C411.461 14.7734 415.133 11.4141 420.172 11.4141ZM420.172 14.4609C417.203 14.4609 414.977 16.5312 415.016 19.5391C414.977 22.5859 417.203 24.6172 420.172 24.5781C423.141 24.6172 425.328 22.5859 425.328 19.5391C425.328 16.5312 423.141 14.4609 420.172 14.4609ZM472.75 3.67969V7.11719C472.75 11.4531 472.75 16.2969 471.422 23.4453L467.672 23.0547C469.039 16.2969 469.039 11.3359 469.039 7.11719V6.6875H447.789V3.67969H472.75ZM476.344 27.5078V30.5938H444.43V27.5078H456.578V15.1641H460.25V27.5078H476.344ZM500.914 23.4453C500.914 26.4531 502.398 29.6367 505.562 31.5312C508.785 29.4805 510.367 26.1211 510.367 23.4453V21.7656H514V23.4453C514 27.0781 516.383 30.5938 520.953 32.0781L519.117 34.8125C515.66 33.6211 513.316 31.2969 512.086 28.4062C510.973 31.2383 508.883 33.7969 505.68 35.125C502.32 33.8555 500.191 31.375 499.117 28.5234C497.848 31.2773 495.543 33.6016 492.242 34.8125L490.367 32.0781C494.859 30.4766 497.281 26.8438 497.32 23.4453V21.7656H500.914V23.4453ZM517.789 0.359375V20.2812H514.078V0.359375H517.789ZM498.805 2.27344C504.156 2.27344 508.102 5.67188 508.102 10.5547C508.102 15.3984 504.156 18.7578 498.805 18.7578C493.453 18.7578 489.469 15.3984 489.469 10.5547C489.469 5.67188 493.453 2.27344 498.805 2.27344ZM498.805 5.4375C495.484 5.39844 493.102 7.46875 493.102 10.5547C493.102 13.6016 495.484 15.6719 498.805 15.6719C502.086 15.6719 504.469 13.6016 504.469 10.5547C504.469 7.46875 502.086 5.39844 498.805 5.4375ZM550.602 0.320312V13.875H556.227V16.9219H550.602V35.3984H546.891V0.320312H550.602ZM541.188 3.67969V6.6875H528.531V23.6016C534.41 23.582 538.824 23.3281 543.805 22.4297L544.273 25.5547C538.805 26.5312 534.156 26.7266 527.633 26.6875H524.82V3.67969H541.188ZM585.172 0.320312V14.2656H590.602V17.3516H585.172V35.2812H581.461V0.320312H585.172ZM576.031 3.99219C575.992 14.1094 571.539 23.1328 560.016 28.8359L557.945 25.9453C566.715 21.5703 571.48 15.2422 572.242 7.07812H559.703V3.99219H576.031ZM631.422 0.320312V18.1328H627.711V14.7734H618.844V11.8828H627.711V8.09375H619.273C617.105 13.5234 611.832 17.0977 604.078 18.9141L602.789 15.8672C611.188 14.0117 615.738 10.125 616.344 4.96875H604.625V1.92188H620.406C620.406 3.05469 620.309 4.12891 620.133 5.16406H627.711V0.320312H631.422ZM631.422 19.6172V28.4844H612.281V32H632.477V34.9688H608.609V25.6719H627.711V22.5469H608.531V19.6172H631.422ZM666.852 0.320312V35.3203H663.297V0.320312H666.852ZM659.742 1.0625V33.5625H656.227V15.75H650.797V12.7031H656.227V1.0625H659.742ZM647.359 10.0859C647.359 16.0625 649.781 22.0391 654.703 24.8906L652.477 27.625C649.137 25.6328 646.832 22.0977 645.641 17.8594C644.371 22.4297 641.988 26.3164 638.57 28.4453L636.305 25.6719C641.266 22.6641 643.805 16.2969 643.805 10.0859V7.27344H637.359V4.26562H653.375V7.27344H647.359V10.0859ZM694 9.22656C693.961 15.6328 697.828 22.0391 703.258 24.4609L701.031 27.3906C697.008 25.4766 693.824 21.5508 692.203 16.7656C690.562 21.8828 687.34 26.1211 683.141 28.1719L680.875 25.0469C686.383 22.5859 690.25 15.9062 690.25 9.22656V3.25H694V9.22656ZM710.133 0.320312V35.3984H706.422V0.320312H710.133ZM745.836 0.320312V35.3203H742.281V0.320312H745.836ZM738.727 0.984375V33.6016H735.172V16.7266H731.227C730.914 23.5625 727.984 27.8203 723.648 27.7812C719.078 27.8203 716.109 23.0156 716.109 15.4375C716.109 7.85938 719.078 3.09375 723.648 3.13281C727.906 3.09375 730.797 7.13672 731.227 13.7188H735.172V0.984375H738.727ZM723.648 6.60938C721.109 6.60938 719.547 9.85156 719.547 15.4375C719.547 21.0234 721.109 24.2656 723.648 24.2656C726.227 24.2656 727.828 21.0234 727.828 15.4375C727.828 9.85156 726.227 6.60938 723.648 6.60938ZM238.766 60.3203V74.2656H244.195V77.3516H238.766V95.2812H235.055V60.3203H238.766ZM229.625 63.9922C229.586 74.1094 225.133 83.1328 213.609 88.8359L211.539 85.9453C220.309 81.5703 225.074 75.2422 225.836 67.0781H213.297V63.9922H229.625ZM267.477 70.6328C267.477 76.1797 271.109 82.3516 276.422 84.8516L274.312 87.7422C270.387 85.8477 267.281 81.9023 265.719 77.3125C264.098 82.332 260.816 86.6484 256.812 88.6406L254.625 85.7109C259.938 83.1719 263.805 76.5703 263.805 70.6328V66.9219H255.914V63.8359H275.094V66.9219H267.477V70.6328ZM282.555 60.3203V74.1875H288.18V77.3125H282.555V95.3203H278.844V60.3203H282.555ZM321.812 77.3516V80.3203H289.859V77.3516H304.039V73.6406H293.844V61.9219H317.867V64.8516H297.516V70.6719H318.102V73.6406H307.633V77.3516H321.812ZM305.797 82.5859C313.336 82.5859 317.867 84.8906 317.867 88.9531C317.867 93.0156 313.336 95.2812 305.797 95.3203C298.219 95.2812 293.648 93.0156 293.648 88.9531C293.648 84.8906 298.219 82.5859 305.797 82.5859ZM305.797 85.4766C300.445 85.4766 297.398 86.7266 297.398 88.9531C297.398 91.1797 300.445 92.4297 305.797 92.3906C311.07 92.4297 314.156 91.1797 314.156 88.9531C314.156 86.7266 311.07 85.4766 305.797 85.4766ZM340.367 62.4297C347.711 62.4297 353.297 66.2969 353.297 72.1953C353.297 78.0938 347.711 82 340.367 81.9609C333.023 82 327.477 78.0938 327.477 72.1953C327.477 66.2969 333.023 62.4297 340.367 62.4297ZM340.367 65.4375C335.016 65.3984 330.992 68.1328 331.031 72.1953C330.992 76.2969 335.016 78.9141 340.367 78.9141C345.719 78.9141 349.703 76.2969 349.703 72.1953C349.703 68.1328 345.719 65.3984 340.367 65.4375ZM356.461 87.7031V90.7891H324.43V87.7031H356.461ZM391.031 88.0156V91.1406H359V88.0156H373.102V81.8828H362.906V70.75H383.453V65.8281H362.828V62.7812H387.125V73.7188H366.578V78.8359H387.945V81.8828H376.773V88.0156H391.031ZM415.523 70.6328C415.523 76.1797 419.156 82.3516 424.469 84.8516L422.359 87.7422C418.434 85.8477 415.328 81.9023 413.766 77.3125C412.145 82.332 408.863 86.6484 404.859 88.6406L402.672 85.7109C407.984 83.1719 411.852 76.5703 411.852 70.6328V66.9219H403.961V63.8359H423.141V66.9219H415.523V70.6328ZM430.602 60.3203V74.1875H436.227V77.3125H430.602V95.3203H426.891V60.3203H430.602ZM466.969 60.3203V95.3984H463.258V60.3203H466.969ZM456.266 63.4844V76.2578H443.688V83.9141C449.352 83.8945 454.312 83.6406 460.172 82.6641L460.523 85.7109C454.312 86.7656 449.039 87 442.867 87H439.898V73.2891H452.477V66.4922H439.859V63.4844H456.266ZM511.422 60.3594V86.2188H507.711V73.0156H500.055V80.3984H483.922V62.6641H487.633V68.6016H496.383V62.6641H500.055V70.0078H507.711V60.3594H511.422ZM512.203 91.5703V94.5781H488.57V83.6797H492.32V91.5703H512.203ZM487.633 77.3906H496.383V71.4531H487.633V77.3906ZM547.125 65.2422V68.25H518.336V65.2422H530.914V60.8281H534.586V65.2422H547.125ZM548.844 88.3672V91.375H516.812V88.3672H530.914V83.7188C524.781 83.3477 521.07 80.9258 521.07 77.0391C521.07 72.8203 525.523 70.3594 532.75 70.3594C539.898 70.3594 544.391 72.8203 544.391 77.0391C544.391 80.9258 540.66 83.3477 534.586 83.7188V88.3672H548.844ZM532.75 73.2891C527.75 73.2891 524.82 74.6172 524.859 77.0391C524.82 79.4609 527.75 80.7891 532.75 80.8281C537.672 80.7891 540.602 79.4609 540.602 77.0391C540.602 74.6172 537.672 73.2891 532.75 73.2891ZM561.891 62.5469C567.281 62.5469 571.305 65.9453 571.305 70.8672C571.305 75.2031 568.18 78.3477 563.766 79.0312V84.5781C566.871 84.4414 569.977 84.207 572.867 83.8359L573.141 86.6094C565.758 87.8984 557.594 87.9375 551.539 87.8984L550.953 84.8516C553.668 84.832 556.793 84.8125 560.055 84.7344V79.0312C555.523 78.3867 552.438 75.2227 552.477 70.8672C552.438 65.9453 556.383 62.5469 561.891 62.5469ZM561.891 65.6719C558.531 65.7109 556.07 67.7422 556.07 70.8672C556.07 73.9922 558.531 76.0625 561.891 76.0234C565.211 76.0625 567.633 73.9922 567.672 70.8672C567.633 67.7422 565.211 65.7109 561.891 65.6719ZM578.688 60.3203V74.5391H584.078V77.6641H578.688V95.3203H574.977V60.3203H578.688ZM28.2578 122.078V124.734C28.2578 127.488 28.2578 130.613 27.3594 134.852H32.3203V137.898H0.289062V134.852H23.6094C24.5469 130.77 24.5859 127.781 24.5859 125.125H4.3125V122.078H28.2578ZM28.2969 142.352V154.891H4.19531V142.352H28.2969ZM7.82812 145.281V151.883H24.625V145.281H7.82812ZM43.1797 122.469C47.8281 122.469 51.2266 125.945 51.2266 130.867C51.2266 135.789 47.8281 139.148 43.1797 139.148C38.4922 139.148 35.1328 135.789 35.1719 130.867C35.1328 125.945 38.4922 122.469 43.1797 122.469ZM43.1797 125.672C40.4453 125.672 38.4922 127.742 38.4922 130.867C38.4922 133.914 40.4453 136.062 43.1797 136.023C45.875 136.062 47.8281 133.914 47.8672 130.867C47.8281 127.742 45.875 125.672 43.1797 125.672ZM64.7031 120.359V141.219H61.1875V132.195H57.125V140.984H53.6484V120.984H57.125V129.188H61.1875V120.359H64.7031ZM64.7031 143.016V155.32H61.0312V145.984H40.9141V143.016H64.7031ZM85.3672 120.906C93.2578 120.906 97.8672 123.016 97.8672 126.922C97.8672 130.828 93.2578 132.977 85.3672 132.977C77.4766 132.977 72.8672 130.828 72.8672 126.922C72.8672 123.016 77.4766 120.906 85.3672 120.906ZM85.3672 123.641C79.7812 123.641 76.6953 124.852 76.7344 126.922C76.6953 129.07 79.7812 130.203 85.3672 130.203C90.9531 130.203 94.0391 129.07 94.0391 126.922C94.0391 124.852 90.9531 123.641 85.3672 123.641ZM101.344 135.125V138.094H69.4297V135.125H101.344ZM97.3203 140.789V148.992H76.9297V152.117H98.2969V154.969H73.2969V146.297H93.6484V143.562H73.2578V140.789H97.3203ZM143.805 120.32V155.32H140.25V120.32H143.805ZM136.695 121.062V153.562H133.18V135.75H127.75V132.703H133.18V121.062H136.695ZM124.312 130.086C124.312 136.062 126.734 142.039 131.656 144.891L129.43 147.625C126.09 145.633 123.785 142.098 122.594 137.859C121.324 142.43 118.941 146.316 115.523 148.445L113.258 145.672C118.219 142.664 120.758 136.297 120.758 130.086V127.273H114.312V124.266H130.328V127.273H124.312V130.086ZM161.188 129.227C161.148 135.633 165.016 142.039 170.445 144.461L168.219 147.391C164.195 145.477 161.012 141.551 159.391 136.766C157.75 141.883 154.527 146.121 150.328 148.172L148.062 145.047C153.57 142.586 157.438 135.906 157.438 129.227V123.25H161.188V129.227ZM177.32 120.32V155.398H173.609V120.32H177.32ZM200.211 126.102V129.109H182.828V126.102H189.703V121.336H193.375V126.102H200.211ZM191.539 131.219C195.992 131.219 199.117 134.539 199.156 139.266C199.117 144.031 195.992 147.391 191.539 147.391C187.164 147.391 183.922 144.031 183.961 139.266C183.922 134.539 187.164 131.219 191.539 131.219ZM191.539 134.305C189 134.305 187.242 136.375 187.242 139.266C187.242 142.234 189 144.227 191.539 144.227C194.039 144.227 195.875 142.234 195.875 139.266C195.875 136.375 194.039 134.305 191.539 134.305ZM212.867 120.32V155.32H209.352V137.938H205.328V153.68H201.812V121.102H205.328V134.891H209.352V120.32H212.867ZM256.305 121.531V124.5H245.719C246.324 127.781 251.246 130.516 257.516 131.102L256.188 134.031C250.094 133.387 245.094 130.887 243.18 127.195C241.266 130.887 236.266 133.387 230.211 134.031L228.883 131.102C235.113 130.516 240.035 127.781 240.68 124.5H230.172V121.531H256.305ZM234.859 141.414V145.164H251.383V141.414H255.055V154.891H231.188V141.414H234.859ZM234.859 151.922H251.383V148.055H234.859V151.922ZM259.156 135.945V138.953H245.016V143.484H241.344V138.953H227.242V135.945H259.156ZM290.875 120.32V155.32H287.164V120.32H290.875ZM267.633 123.719V143.211C272.73 143.172 278.102 142.762 283.727 141.609L284.234 144.734C278.023 145.984 272.398 146.414 266.891 146.414H263.961V123.719H267.633ZM323.648 120.32V133.875H329.273V136.922H323.648V155.398H319.938V120.32H323.648ZM314.234 123.68V126.688H301.578V143.602C307.457 143.582 311.871 143.328 316.852 142.43L317.32 145.555C311.852 146.531 307.203 146.727 300.68 146.688H297.867V123.68H314.234ZM334.938 152.273C333.414 152.273 332.125 151.023 332.164 149.5C332.125 147.977 333.414 146.727 334.938 146.727C336.422 146.727 337.711 147.977 337.711 149.5C337.711 151.023 336.422 152.273 334.938 152.273Z" fill="black"/>
<path d="M0.6 91.44V71.68C0.6 71.36 0.84 71.08 1.16 71.08H8.56C9.04 71.08 9.4 70.72 9.4 70.24V64.6C9.4 64.28 9.68 64 10 64H13.88C14.2 64 14.44 64.28 14.44 64.6V70.24C14.44 70.56 14.2 70.84 13.88 70.84H10C9.52 70.84 9.16 71.2 9.16 71.68V91.44C9.16 91.76 8.88 92 8.56 92H1.16C0.84 92 0.6 91.76 0.6 91.44ZM15.28 70.84H19.16C19.64 70.84 20 71.2 20 71.68V84.36C20 84.84 19.64 85.2 19.16 85.2H10C9.68 85.2 9.4 85.48 9.4 85.8V91.44C9.4 91.76 9.68 92 10 92H19.16C19.48 92 19.76 91.76 19.76 91.44V85.8C19.76 85.32 20.12 84.96 20.6 84.96H24.48C24.8 84.96 25.04 84.68 25.04 84.36V71.68C25.04 71.36 24.8 71.08 24.48 71.08H20.6C20.12 71.08 19.76 70.72 19.76 70.24V64.6C19.76 64.28 19.48 64 19.16 64H15.28C14.96 64 14.72 64.28 14.72 64.6V70.24C14.72 70.56 14.96 70.84 15.28 70.84ZM34.0153 92H29.3353V63.6H34.0153V92ZM62.6963 71.68V77.32C62.6963 77.64 62.4563 77.88 62.1363 77.88H54.6963C54.3763 77.88 54.1363 77.64 54.1363 77.32V71.68C54.1363 71.2 53.7363 70.84 53.2963 70.84H44.0963C43.6563 70.84 43.2963 71.2 43.2963 71.68V91.44C43.2963 91.76 43.0163 92.04 42.6963 92.04H38.8163C38.4963 92.04 38.2163 91.76 38.2163 91.44V64.6C38.2163 64.28 38.4963 64 38.8163 64H53.2963C53.6163 64 53.8963 64.28 53.8963 64.6V70.24C53.8963 70.72 54.2563 71.08 54.6963 71.08H62.1363C62.4563 71.08 62.6963 71.36 62.6963 71.68ZM43.5363 91.44C43.5363 91.76 43.7763 92.04 44.0963 92.04H48.0163C48.3363 92.04 48.5763 91.76 48.5763 91.44V82.24C48.5763 81.8 48.9363 81.4 49.4163 81.4H53.2963C53.7363 81.4 54.1363 81.8 54.1363 82.24V91.44C54.1363 91.76 54.3763 92 54.6963 92H62.1363C62.4563 92 62.6963 91.76 62.6963 91.44V82.24C62.6963 81.92 62.4563 81.64 62.1363 81.64H54.6963C54.2563 81.64 53.8963 81.28 53.8963 80.84V78.72C53.8963 78.4 53.6163 78.12 53.2963 78.12H44.0963C43.7763 78.12 43.5363 78.4 43.5363 78.72V91.44ZM78.2316 92H73.5516V67.48H65.1916V63.6H86.6316V67.48H78.2316V92ZM98.7975 78.12H94.8775C94.4375 78.12 94.0775 77.76 94.0775 77.28V64.6C94.0775 64.28 93.7975 64 93.4775 64H89.5975C89.2775 64 88.9975 64.28 88.9975 64.6V77.28C88.9975 77.6 89.2775 77.88 89.5975 77.88H93.4775C93.9575 77.88 94.3175 78.24 94.3175 78.72V91.44C94.3175 91.76 94.5575 92 94.8775 92H98.7975C99.1175 92 99.3575 91.76 99.3575 91.44V78.72C99.3575 78.4 99.1175 78.12 98.7975 78.12ZM104.678 78.72V91.44C104.678 91.76 104.398 92 104.078 92H100.198C99.8775 92 99.5975 91.76 99.5975 91.44V78.72C99.5975 78.4 99.8775 78.12 100.198 78.12H104.078C104.518 78.12 104.918 77.76 104.918 77.28V64.6C104.918 64.28 105.158 64 105.478 64H112.918C113.238 64 113.478 64.28 113.478 64.6V77.28C113.478 77.6 113.238 77.88 112.918 77.88H105.478C105.038 77.88 104.678 78.24 104.678 78.72ZM152.968 71.68V80.84C152.968 81.16 152.728 81.44 152.408 81.44H144.968C144.648 81.44 144.408 81.16 144.408 80.84V71.68C144.408 71.2 144.008 70.84 143.568 70.84H136.128C135.688 70.84 135.328 71.2 135.328 71.68V84.36C135.328 84.68 135.048 84.96 134.728 84.96H130.848C130.528 84.96 130.248 84.68 130.248 84.36V71.68C130.248 71.36 130.528 71.08 130.848 71.08H134.728C135.208 71.08 135.568 70.72 135.568 70.24V64.6C135.568 64.28 135.808 64 136.128 64H143.568C143.888 64 144.128 64.28 144.128 64.6V70.24C144.128 70.72 144.528 71.08 144.968 71.08H152.408C152.728 71.08 152.968 71.36 152.968 71.68ZM144.128 78.72C144.128 78.4 143.888 78.16 143.568 78.16H136.128C135.808 78.16 135.568 78.4 135.568 78.72V84.36C135.568 84.84 135.208 85.2 134.728 85.2H130.848C130.528 85.2 130.288 85.48 130.288 85.8V91.44C130.288 91.76 130.528 92 130.848 92H134.728C135.048 92 135.328 91.76 135.328 91.44V85.8C135.328 85.32 135.688 84.96 136.128 84.96H143.568C143.888 84.96 144.128 84.68 144.128 84.36V78.72ZM182.025 92H177.105L174.585 85.08H162.385L159.825 92H155.105L166.025 63.6H171.105L182.025 92ZM168.505 68.56L163.825 81.2H173.145L168.505 68.56ZM193.876 78.12H189.956C189.516 78.12 189.156 77.76 189.156 77.28V64.6C189.156 64.28 188.876 64 188.556 64H184.676C184.356 64 184.076 64.28 184.076 64.6V77.28C184.076 77.6 184.356 77.88 184.676 77.88H188.556C189.036 77.88 189.396 78.24 189.396 78.72V91.44C189.396 91.76 189.636 92 189.956 92H193.876C194.196 92 194.436 91.76 194.436 91.44V78.72C194.436 78.4 194.196 78.12 193.876 78.12ZM199.756 78.72V91.44C199.756 91.76 199.476 92 199.156 92H195.276C194.956 92 194.676 91.76 194.676 91.44V78.72C194.676 78.4 194.956 78.12 195.276 78.12H199.156C199.596 78.12 199.996 77.76 199.996 77.28V64.6C199.996 64.28 200.236 64 200.556 64H207.996C208.316 64 208.556 64.28 208.556 64.6V77.28C208.556 77.6 208.316 77.88 207.996 77.88H200.556C200.116 77.88 199.756 78.24 199.756 78.72Z" fill="#0084FF"/>
</svg>
